<svg width="24" height="24" viewBox="0 0 24 24" fill="none" xmlns="http://www.w3.org/2000/svg">
<g clip-path="url(#clip0_54_429)">
<path d="M0.246094 12.8828C0.0703125 12.707 0 12.4961 0 12.25C0 12.0391 0.0703125 11.8281 0.246094 11.6523L6.43359 5.74609C6.78516 5.42969 7.3125 5.42969 7.62891 5.78125C7.94531 6.09766 7.94531 6.66016 7.59375 6.97656L2.91797 11.4062H14.9062C15.3633 11.4062 15.75 11.793 15.75 12.25C15.75 12.7422 15.3633 13.0938 14.9062 13.0938H2.91797L7.59375 17.5586C7.94531 17.875 7.94531 18.4023 7.62891 18.7539C7.3125 19.1055 6.78516 19.1055 6.43359 18.7891L0.246094 12.8828Z" fill="white"/>
</g>
<defs>
<clipPath id="clip0_54_429">
<rect width="24" height="24" fill="white"/>
</clipPath>
</defs>
</svg>
