<svg width="24" height="24" viewBox="0 0 24 24" fill="none" xmlns="http://www.w3.org/2000/svg">
<path d="M8.625 4.9375V6.625H15.375V4.9375C15.375 4.65625 15.0938 4.375 14.8125 4.375H9.1875C8.87109 4.375 8.625 4.65625 8.625 4.9375ZM7.5 6.625V4.9375C7.5 4.02344 8.23828 3.25 9.1875 3.25H14.8125C15.7266 3.25 16.5 4.02344 16.5 4.9375V6.625H18.75C19.9805 6.625 21 7.64453 21 8.875V17.875C21 19.1406 19.9805 20.125 18.75 20.125H5.25C3.98438 20.125 3 19.1406 3 17.875V8.875C3 7.64453 3.98438 6.625 5.25 6.625H7.5ZM15.9375 7.75H8.0625H7.5V19H16.5V7.75H15.9375ZM5.25 7.75C4.61719 7.75 4.125 8.27734 4.125 8.875V17.875C4.125 18.5078 4.61719 19 5.25 19H6.375V7.75H5.25ZM18.75 19C19.3477 19 19.875 18.5078 19.875 17.875V8.875C19.875 8.27734 19.3477 7.75 18.75 7.75H17.625V19H18.75Z" fill="#111212"/>
</svg>
