<svg width="24" height="24" viewBox="0 0 24 24" fill="none" xmlns="http://www.w3.org/2000/svg">
<g clip-path="url(#clip0_54_450)">
<path d="M16.1719 6.42188L10.5469 12.0469L16.125 17.625C16.5938 18.0469 16.5938 18.75 16.125 19.1719C15.7031 19.6406 15 19.6406 14.5781 19.1719L8.95312 13.5938L3.375 19.1719C2.95312 19.6406 2.25 19.6406 1.82812 19.1719C1.35938 18.75 1.35938 18.0469 1.82812 17.5781L7.40625 12L1.82812 6.42188C1.35938 6 1.35938 5.29688 1.82812 4.82812C2.25 4.40625 2.95312 4.40625 3.42188 4.82812L9 10.4531L14.5781 4.875C15 4.40625 15.7031 4.40625 16.1719 4.875C16.5938 5.29688 16.5938 6 16.1719 6.42188Z" fill="white"/>
</g>
<defs>
<clipPath id="clip0_54_450">
<rect width="24" height="24" fill="white"/>
</clipPath>
</defs>
</svg>
