<svg width="24" height="24" viewBox="0 0 24 24" fill="none" xmlns="http://www.w3.org/2000/svg">
<path d="M6.16406 13.1641C7.60547 13.9727 9.64453 14.5 12 14.5C14.3203 14.5 16.3594 13.9727 17.8008 13.1641C19.2773 12.3555 19.875 11.4062 19.875 10.5625C19.875 9.75391 19.2773 8.80469 17.8008 7.99609C16.3594 7.1875 14.3203 6.625 12 6.625C9.64453 6.625 7.60547 7.1875 6.16406 7.99609C4.72266 8.80469 4.125 9.75391 4.125 10.5625C4.125 11.4062 4.72266 12.3555 6.16406 13.1641ZM11.4375 15.625C10.6289 15.5898 9.89062 15.5195 9.1875 15.3789V17.6641C9.89062 17.7695 10.6289 17.8398 11.4375 17.875V15.625ZM6.375 14.5352V16.8203C6.86719 17.0312 7.42969 17.2422 8.0625 17.418V15.1328C7.42969 14.957 6.86719 14.7812 6.375 14.5352ZM5.25 13.9375C4.79297 13.6562 4.44141 13.3398 4.125 13.0234V14.5C4.125 14.957 4.40625 15.5547 5.25 16.1523V13.9375ZM12.5625 17.875C13.3359 17.8398 14.1094 17.7695 14.8125 17.6641V15.3789C14.0742 15.5195 13.3359 15.5898 12.5625 15.625V17.875ZM18.75 13.9375V16.1523C19.5586 15.5547 19.875 14.957 19.875 14.5V13.0234C19.5586 13.3398 19.1719 13.6562 18.75 13.9375ZM17.625 14.5352C17.0977 14.7461 16.5352 14.957 15.9375 15.1328V17.418C16.5352 17.2422 17.0977 17.0312 17.625 16.8203V14.5352ZM12 5.5C16.957 5.5 21 7.78516 21 10.5625V11.6875V14.5C21 16.9961 16.957 19 12 19C7.00781 19 3 16.9961 3 14.5V11.6875V10.5625C3 7.78516 7.00781 5.5 12 5.5Z" fill="#111212"/>
</svg>
