<svg width="48" height="49" viewBox="0 0 48 49" fill="none" xmlns="http://www.w3.org/2000/svg">
<path d="M37.5 12C37.5 16.2188 35.0625 19.875 31.5 22.0312V24C31.5 25.6875 30.0938 27 28.5 27H19.5C17.8125 27 16.5 25.6875 16.5 24V22.0312C12.8438 19.875 10.5 16.2188 10.5 12C10.5 5.4375 16.5 0 24 0C31.4062 0 37.5 5.4375 37.5 12ZM18.75 16.5C20.3438 16.5 21.75 15.1875 21.75 13.5C21.75 11.9062 20.3438 10.5 18.75 10.5C17.0625 10.5 15.75 11.9062 15.75 13.5C15.75 15.1875 17.0625 16.5 18.75 16.5ZM32.25 13.5C32.25 11.9062 30.8438 10.5 29.25 10.5C27.5625 10.5 26.25 11.9062 26.25 13.5C26.25 15.1875 27.5625 16.5 29.25 16.5C30.8438 16.5 32.25 15.1875 32.25 13.5ZM3.28125 25.6875C4.03125 24.1875 5.8125 23.625 7.3125 24.375L24 32.7188L40.5938 24.375C42.0938 23.625 43.875 24.1875 44.625 25.6875C45.375 27.1875 44.8125 28.9688 43.3125 29.7188L30.6562 36L43.3125 42.375C44.8125 43.125 45.375 44.9062 44.625 46.4062C43.875 47.9062 42.0938 48.4688 40.5938 47.7188L24 39.375L7.3125 47.7188C5.8125 48.4688 4.03125 47.9062 3.28125 46.4062C2.53125 44.9062 3.09375 43.125 4.59375 42.375L17.25 36L4.59375 29.7188C3.09375 28.9688 2.53125 27.1875 3.28125 25.6875Z" fill="#5F3DC4"/>
</svg>
