<svg width="60" height="49" viewBox="0 0 60 49" fill="none" xmlns="http://www.w3.org/2000/svg">
<path d="M13.5 10.5C13.5 4.78125 18.1875 0 24 0H25.5C26.25 0 27 0.75 27 1.5V3C27 8.71875 22.5 13.3125 16.9688 13.5C14.7188 16.5938 13.5 20.25 13.5 24C13.5 33.1875 20.8125 40.5 30 40.5H31.0312C35.1562 40.5 39.0938 41.5312 42.75 43.3125L43.6875 43.7812C44.8125 44.3438 45.2812 45.6562 44.7188 46.7812C44.1562 47.9062 42.8438 48.375 41.7188 47.8125L40.7812 47.3438C37.7812 45.8438 34.4062 45 31.0312 45H30H28.875C25.5 45 22.125 45.8438 19.125 47.3438L18.1875 47.8125C17.0625 48.375 15.75 47.9062 15.1875 46.7812C14.625 45.6562 15.0938 44.3438 16.2188 43.7812L17.1562 43.3125C17.9062 42.9375 18.6562 42.5625 19.5 42.2812C18.9375 42 18.4688 41.625 18 41.3438C12.375 43.9688 5.625 41.9062 2.4375 36.4688L1.6875 35.1562C1.3125 34.4062 1.59375 33.4688 2.25 33.0938C3.5625 32.3438 4.96875 31.875 6.375 31.5938C2.53125 29.625 0 25.5938 0 21V19.5C0 18.75 0.65625 18 1.5 18C2.90625 18 4.40625 18.2812 5.71875 18.8438C3.375 15.1875 3.1875 10.4062 5.4375 6.46875L6.1875 5.15625C6.65625 4.40625 7.59375 4.21875 8.25 4.59375C10.7812 6 12.4688 8.15625 13.5 10.5938V10.5ZM43.0312 13.5C37.4062 13.3125 33 8.71875 33 3V1.5C33 0.75 33.6562 0 34.5 0H36C41.7188 0 46.5 4.78125 46.5 10.5V10.5938C47.4375 8.15625 49.2188 6 51.6562 4.59375C52.4062 4.21875 53.25 4.40625 53.7188 5.15625L54.4688 6.46875C56.7188 10.4062 56.5312 15.1875 54.1875 18.8438C55.5938 18.2812 57 18.0938 58.5 18.0938C59.25 18.0938 60 18.75 60 19.5938V21.0938C60 25.6875 57.375 29.625 53.625 31.6875C54.9375 31.875 56.3438 32.3438 57.6562 33.0938C58.4062 33.5625 58.5938 34.4062 58.2188 35.1562L57.4688 36.4688C55.2188 40.4062 51 42.5625 46.7812 42.4688C46.3125 41.9062 45.75 41.4375 45.0938 41.1562L44.1562 40.6875C43.875 40.5 43.5938 40.4062 43.3125 40.2188C42.375 39.8438 41.3438 39.375 40.3125 39.0938C39.6562 38.8125 38.9062 38.625 38.0625 38.4375C43.125 35.5312 46.5 30.1875 46.5 24C46.5 20.25 45.1875 16.5938 43.0312 13.5Z" fill="#5F3DC4"/>
</svg>
