<svg width="24" height="24" viewBox="0 0 24 24" fill="none" xmlns="http://www.w3.org/2000/svg">
<g clip-path="url(#clip0_47_2150)">
<path d="M0 3.75C0 3.375 0.328125 3 0.75 3H20.25C20.625 3 21 3.375 21 3.75C21 4.17188 20.625 4.5 20.25 4.5H0.75C0.328125 4.5 0 4.17188 0 3.75ZM0 11.25C0 10.875 0.328125 10.5 0.75 10.5H20.25C20.625 10.5 21 10.875 21 11.25C21 11.6719 20.625 12 20.25 12H0.75C0.328125 12 0 11.6719 0 11.25ZM21 18.75C21 19.1719 20.625 19.5 20.25 19.5H0.75C0.328125 19.5 0 19.1719 0 18.75C0 18.375 0.328125 18 0.75 18H20.25C20.625 18 21 18.375 21 18.75Z" fill="#111212"/>
</g>
<defs>
<clipPath id="clip0_47_2150">
<rect width="24" height="24" fill="white"/>
</clipPath>
</defs>
</svg>
