<svg width="24" height="24" viewBox="0 0 24 24" fill="none" xmlns="http://www.w3.org/2000/svg">
<path d="M20.4023 9.12115C20.543 9.43756 20.4375 9.75397 20.1914 10.0001L18.6797 11.3712C18.7148 11.6524 18.7148 11.9688 18.7148 12.2501C18.7148 12.5665 18.7148 12.8829 18.6797 13.1641L20.1914 14.5352C20.4375 14.7462 20.543 15.0977 20.4023 15.4141C20.2617 15.836 20.0859 16.2227 19.875 16.6094L19.6992 16.8907C19.4531 17.2774 19.207 17.6641 18.9258 17.9805C18.7148 18.2618 18.3633 18.3321 18.0469 18.2266L16.1133 17.629C15.6211 17.9805 15.0938 18.2618 14.5664 18.5079L14.1094 20.5118C14.0391 20.8282 13.793 21.0743 13.4766 21.1446C12.9844 21.2149 12.4922 21.2501 11.9648 21.2501C11.4727 21.2501 10.9805 21.2149 10.4883 21.1446C10.1719 21.0743 9.92578 20.8282 9.85547 20.5118L9.39844 18.5079C8.83594 18.2618 8.34375 17.9805 7.85156 17.629L5.91797 18.2266C5.60156 18.3321 5.25 18.2618 5.03906 18.0157C4.75781 17.6641 4.51172 17.2774 4.26562 16.8907L4.08984 16.6094C3.87891 16.2227 3.70312 15.836 3.5625 15.4141C3.42188 15.0977 3.52734 14.7813 3.77344 14.5352L5.28516 13.1641C5.25 12.8829 5.25 12.5665 5.25 12.2501C5.25 11.9688 5.25 11.6524 5.28516 11.3712L3.77344 10.0001C3.52734 9.75397 3.42188 9.43756 3.5625 9.12115C3.70312 8.69928 3.87891 8.31256 4.08984 7.92584L4.26562 7.64459C4.51172 7.25787 4.75781 6.87115 5.03906 6.51959C5.25 6.2735 5.60156 6.20319 5.91797 6.30865L7.85156 6.90631C8.34375 6.55475 8.87109 6.23834 9.39844 6.0274L9.85547 4.0235C9.92578 3.70709 10.1719 3.461 10.4883 3.39069C10.9805 3.32037 11.4727 3.25006 12 3.25006C12.4922 3.25006 12.9844 3.32037 13.4766 3.39069C13.793 3.42584 14.0391 3.70709 14.1094 4.0235L14.5664 6.0274C15.1289 6.23834 15.6211 6.55475 16.1133 6.90631L18.0469 6.30865C18.3633 6.20319 18.7148 6.2735 18.9258 6.51959C19.207 6.87115 19.4531 7.25787 19.6992 7.64459L19.875 7.92584C20.0859 8.31256 20.2617 8.69928 20.4375 9.12115H20.4023ZM12 15.0626C12.9844 15.0626 13.8984 14.5352 14.4258 13.6563C14.918 12.8126 14.918 11.7227 14.4258 10.8438C13.8984 10.0001 12.9844 9.43756 12 9.43756C10.9805 9.43756 10.0664 10.0001 9.53906 10.8438C9.04688 11.7227 9.04688 12.8126 9.53906 13.6563C10.0664 14.5352 10.9805 15.0626 12 15.0626Z" fill="#845EF7"/>
</svg>
