<svg width="20" height="19" viewBox="0 0 20 19" fill="none" xmlns="http://www.w3.org/2000/svg">
<path d="M10 1.375C7.15234 1.375 4.58594 2.88672 3.17969 5.3125C1.73828 7.77344 1.73828 10.7617 3.17969 13.1875C4.58594 15.6484 7.15234 17.125 10 17.125C12.8125 17.125 15.3789 15.6484 16.7852 13.1875C18.2266 10.7617 18.2266 7.77344 16.7852 5.3125C15.3789 2.88672 12.8125 1.375 10 1.375ZM10 18.25C6.76562 18.25 3.8125 16.5625 2.19531 13.75C0.578125 10.9727 0.578125 7.5625 2.19531 4.75C3.8125 1.97266 6.76562 0.25 10 0.25C13.1992 0.25 16.1523 1.97266 17.7695 4.75C19.3867 7.5625 19.3867 10.9727 17.7695 13.75C16.1523 16.5625 13.1992 18.25 10 18.25ZM9.4375 12.625V9.8125H6.625C6.30859 9.8125 6.0625 9.56641 6.0625 9.25C6.0625 8.96875 6.30859 8.6875 6.625 8.6875H9.4375V5.875C9.4375 5.59375 9.68359 5.3125 10 5.3125C10.2812 5.3125 10.5625 5.59375 10.5625 5.875V8.6875H13.375C13.6562 8.6875 13.9375 8.96875 13.9375 9.25C13.9375 9.56641 13.6562 9.8125 13.375 9.8125H10.5625V12.625C10.5625 12.9414 10.2812 13.1875 10 13.1875C9.68359 13.1875 9.4375 12.9414 9.4375 12.625Z" fill="#5F3DC4"/>
</svg>
