<svg width="24" height="24" viewBox="0 0 24 24" fill="none" xmlns="http://www.w3.org/2000/svg">
<path d="M2.375 4.09378C2.375 3.63675 2.72656 3.25003 3.21875 3.25003H4.80078C5.57422 3.25003 6.27734 3.70706 6.59375 4.37503H21.043C21.957 4.37503 22.625 5.25394 22.3789 6.168L20.9375 11.5117C20.6562 12.6367 19.6367 13.375 18.5117 13.375H8.35156L8.5625 14.3946C8.63281 14.7813 8.98438 15.0625 9.37109 15.0625H19.5312C19.9883 15.0625 20.375 15.4492 20.375 15.9063C20.375 16.3985 19.9883 16.75 19.5312 16.75H9.37109C8.17578 16.75 7.12109 15.9063 6.91016 14.711L5.08203 5.18362C5.04688 5.043 4.94141 4.93753 4.80078 4.93753H3.21875C2.72656 4.93753 2.375 4.58597 2.375 4.09378ZM6.875 19.5625C6.875 18.9649 7.19141 18.4375 7.71875 18.1211C8.21094 17.8047 8.87891 17.8047 9.40625 18.1211C9.89844 18.4375 10.25 18.9649 10.25 19.5625C10.25 20.1953 9.89844 20.7227 9.40625 21.0391C8.87891 21.3555 8.21094 21.3555 7.71875 21.0391C7.19141 20.7227 6.875 20.1953 6.875 19.5625ZM18.6875 17.875C19.2852 17.875 19.8125 18.2266 20.1289 18.7188C20.4453 19.2461 20.4453 19.9141 20.1289 20.4063C19.8125 20.9336 19.2852 21.25 18.6875 21.25C18.0547 21.25 17.5273 20.9336 17.2109 20.4063C16.8945 19.9141 16.8945 19.2461 17.2109 18.7188C17.5273 18.2266 18.0547 17.875 18.6875 17.875Z" fill="#845EF7"/>
</svg>
