<svg width="205" height="80" viewBox="0 0 205 80" fill="none" xmlns="http://www.w3.org/2000/svg">
<g clip-path="url(#clip0_112_116)">
<path d="M20.8745 58.4693C16.0417 58.4693 12.0692 57.7862 8.98235 56.4453C5.89546 55.1044 3.61824 53.3333 2.17601 51.1322C0.73377 48.9311 0 46.5528 0 44.0481C0 41.5433 0.657862 38.8868 1.97359 36.3061C3.28931 33.7255 5.18699 31.3473 7.69193 29.1714C10.1969 26.9956 13.1825 25.2498 16.649 23.9342C20.1154 22.6186 24.0373 21.9608 28.3893 21.9608C29.6797 21.9608 31.3244 22.1126 33.3486 22.4415C35.3727 22.7704 37.3969 23.2764 39.4464 24.0101C41.4959 24.7438 43.2165 25.68 44.6587 26.8691C46.0757 28.0582 46.86 29.5003 46.9612 31.2208C47.0118 32.2328 46.7335 33.093 46.1516 33.8014C45.5696 34.5098 44.9371 34.8387 44.3045 34.8387C43.4948 34.8387 42.9888 34.3327 42.761 33.2954C42.6092 32.587 41.749 31.7774 40.1802 30.8412C38.6115 29.9051 36.7138 29.0702 34.4619 28.3365C32.2099 27.6028 29.8568 27.2486 27.4531 27.2486C24.5433 27.2486 21.8613 27.7293 19.4322 28.6907C16.9779 29.6521 14.8778 30.9171 13.1066 32.4858C11.3355 34.0544 9.94384 35.7495 8.95705 37.5965C7.97025 39.4434 7.46421 41.265 7.46421 43.0361C7.46421 45.6167 8.60281 47.8431 10.88 49.7407C13.1572 51.6129 16.902 52.5743 22.1396 52.5743C25.3024 52.5743 28.5411 51.7394 31.8051 50.0696C35.0944 48.3998 38.3078 46.2492 41.4453 43.5674C44.5828 40.8855 47.5432 38.0772 50.2759 35.0664C53.0085 32.0557 55.4375 29.1714 57.5376 26.439C58.4991 25.1992 59.6377 23.7318 60.9535 22.0114C62.2692 20.291 63.6355 18.4946 65.0525 16.5971C66.4694 14.7249 67.8104 12.9538 69.0755 11.284C70.3407 9.61417 71.3528 8.19735 72.1118 7.00823C72.2636 6.72992 72.5167 6.60342 72.8456 6.60342C73.1239 6.60342 73.3263 6.72992 73.4782 6.95763C73.63 7.21063 73.6047 7.48894 73.4023 7.79254C72.5926 8.98166 71.5805 10.4238 70.3407 12.1442C69.1008 13.8646 67.7598 15.661 66.3429 17.5079C64.9259 19.3548 63.5596 21.1512 62.2439 22.9222C60.9282 24.6679 59.7896 26.1607 58.8281 27.4004C57.1581 29.5509 55.2604 31.8533 53.135 34.3074C51.0096 36.7616 48.7071 39.1398 46.2528 41.4927C43.7731 43.8204 41.1923 45.9456 38.5102 47.8684C35.8282 49.766 33.0955 51.3093 30.3123 52.4731C27.5543 53.6369 24.8216 54.2189 22.1396 54.2189C18.3189 54.2189 15.2067 53.7128 12.7777 52.6755C10.3487 51.6635 8.60281 50.3226 7.48951 48.6528C6.3762 46.9829 5.84485 45.1613 5.84485 43.1626C5.84485 41.1638 6.3762 39.1398 7.4136 37.0652C8.451 34.9905 9.94384 33.093 11.8921 31.3726C13.8404 29.6521 16.1176 28.2606 18.7491 27.2233C21.3805 26.186 24.2903 25.6547 27.4531 25.6547C29.2243 25.6547 31.046 25.8824 32.9437 26.2872C34.8161 26.7173 36.5873 27.2992 38.2319 28.0329C39.8766 28.7666 41.2429 29.5509 42.3309 30.4111C43.4442 31.2714 44.1021 32.1316 44.3045 32.9918C44.3045 33.0424 44.3045 33.1183 44.3804 33.2448C44.7093 33.1436 44.9371 32.8653 45.1142 32.4099C45.266 31.9545 45.3672 31.6256 45.3672 31.3979C45.3166 29.9557 44.6081 28.716 43.2418 27.7293C41.8755 26.7426 40.2561 25.933 38.3584 25.3005C36.4861 24.6932 34.6137 24.2378 32.7919 23.9595C30.9701 23.6812 29.5026 23.5547 28.4399 23.5547C24.4168 23.5547 20.748 24.1619 17.4333 25.4017C14.1187 26.6414 11.2849 28.2606 8.93175 30.234C6.55332 32.2328 4.75685 34.4086 3.49173 36.8122C2.22661 39.2157 1.59405 41.5939 1.59405 43.9469C1.59405 46.2998 2.27722 48.3998 3.61824 50.3479C4.95927 52.3213 7.05937 53.89 9.91854 55.0538C12.7777 56.2429 16.4466 56.8248 20.9757 56.8248C26.4157 56.8248 31.4256 55.7875 36.0053 53.6875C40.585 51.5876 44.8358 48.8046 48.7577 45.3384C52.6543 41.8722 56.2472 37.976 59.5618 33.6749C62.8765 29.3738 65.9633 24.9968 68.8731 20.544C71.7829 16.0911 74.5156 11.8912 77.0964 7.96965C77.2482 7.69134 77.4759 7.56484 77.729 7.56484C77.982 7.56484 78.235 7.69134 78.4627 7.96965C78.6651 8.24795 78.6651 8.52626 78.4627 8.85516C75.7807 12.9538 72.9721 17.2549 70.037 21.809C67.102 26.3631 63.9392 30.7906 60.5486 35.117C57.1581 39.4434 53.4893 43.365 49.4915 46.8817C45.519 50.3985 41.167 53.2068 36.4608 55.3068C31.7545 57.4067 26.5928 58.444 20.9251 58.444L20.8745 58.4693ZM73.5288 38.3808C72.9974 38.3808 72.7191 38.1025 72.7191 37.5712C72.7191 37.0399 72.9721 36.7616 73.4529 36.7616C76.7928 36.4832 80.0315 35.8001 83.169 34.7122C86.3065 33.599 89.1656 32.1822 91.7212 30.3858C94.2767 28.5895 96.3009 26.5402 97.8191 24.1366C99.3119 21.7331 100.071 19.1524 100.071 16.3441C100.071 13.7128 99.4637 11.5117 98.2492 9.74068C97.0347 7.96965 95.39 6.55282 93.3405 5.4649C91.2657 4.40228 88.9632 3.59267 86.4583 3.03606C83.928 2.50475 81.3472 2.12524 78.6651 1.94814C76.0084 1.77104 73.4529 1.64454 71.0491 1.59393C66.267 1.49273 61.5607 1.77104 56.9051 2.42885C52.2494 3.11196 47.948 4.07338 44.0009 5.3637C40.0537 6.65402 36.6885 8.19735 33.9305 9.96838C31.1726 11.7394 29.2749 13.7128 28.2375 15.8634C28.0351 16.3441 27.8579 16.7236 27.7567 17.0019C27.6555 17.2802 27.7567 17.4067 28.0857 17.4067C28.6676 17.4067 29.3508 17.179 30.1098 16.7236C30.8689 16.2682 31.4256 15.8381 31.8051 15.4839C33.5257 13.7128 35.8029 12.1189 38.6621 10.7274C41.5212 9.33587 44.684 8.14675 48.2264 7.18533C51.7434 6.22392 55.4122 5.4902 59.1823 4.95889C62.9777 4.45288 66.6718 4.19988 70.2648 4.19988C73.3769 4.19988 76.4132 4.40228 79.323 4.83239C82.2581 5.2625 84.8642 5.97091 87.1921 6.95763C89.4946 7.94435 91.3416 9.25997 92.708 10.8792C94.0743 12.4984 94.7575 14.4719 94.7575 16.8501C94.7575 19.7091 93.8972 22.2644 92.1766 24.5161C90.4561 26.7679 88.1535 28.6907 85.2691 30.234C82.3846 31.7774 79.1712 32.9665 75.6289 33.7761C72.0865 34.5857 68.443 34.9905 64.7488 34.9905H64.6729C64.1922 34.9905 63.9392 34.7122 63.9392 34.1809C63.9392 33.6496 64.2175 33.3713 64.7488 33.3713C68.2912 33.2195 71.7576 32.7388 75.0975 31.9292C78.4627 31.1196 81.499 30.0316 84.2064 28.6148C86.9137 27.2233 89.0644 25.5282 90.6585 23.58C92.2525 21.6066 93.0369 19.4307 93.0369 17.0019C93.0369 14.3707 92.0501 12.2201 90.0512 10.6009C88.0523 8.98166 85.3703 7.74194 81.9545 6.98293C78.5386 6.19862 74.6674 5.81911 70.3154 5.81911C66.7224 5.81911 63.0536 6.07211 59.3594 6.55282C55.64 7.03353 52.0976 7.74194 48.7071 8.67806C45.3166 9.61418 42.255 10.7527 39.5223 12.0936C36.7897 13.4345 34.5631 14.9526 32.9184 16.5971C32.2859 17.2296 31.4509 17.7862 30.4641 18.2416C29.4773 18.697 28.5917 18.9247 27.8326 18.9247C26.694 18.9247 26.1374 18.444 26.1374 17.4826C26.1374 16.8501 26.3398 16.0911 26.7699 15.2309C27.9085 12.802 29.9327 10.6262 32.8931 8.70336C35.8535 6.75523 39.3958 5.136 43.4948 3.82037C47.5938 2.50475 52.0217 1.51803 56.7533 0.834921C61.5101 0.20241 66.267 -0.0758947 71.0491 6.6543e-06C73.301 0.0506075 75.806 0.17711 78.5133 0.354213C81.2207 0.531316 83.9534 0.936123 86.7113 1.51803C89.444 2.09994 91.9489 2.98546 94.2008 4.14928C96.4527 5.3131 98.2745 6.85643 99.6914 8.77926C101.083 10.7021 101.792 13.1815 101.792 16.1923C101.792 19.4054 100.982 22.3656 99.3625 25.0727C97.7432 27.7546 95.5925 30.1075 92.8598 32.081C90.1524 34.0797 87.1161 35.623 83.8015 36.711C80.4616 37.8242 77.0711 38.3555 73.63 38.3555H73.5541L73.5288 38.3808ZM84.1811 63.0487C80.7399 63.0487 77.6531 62.4415 74.9457 61.2271C72.2383 60.0127 69.8852 58.4187 67.9369 56.42C65.9633 54.4213 64.344 52.2707 63.0536 49.9684C61.7631 47.666 60.7764 45.389 60.0679 43.1879C60.0679 43.1373 60.0679 43.0867 60.0173 43.0614C59.992 43.0361 59.9667 42.9855 59.9667 42.9349C59.9667 42.4035 60.2703 42.1252 60.8523 42.1252C61.1812 42.1252 61.4089 42.3023 61.586 42.6819C62.2186 44.7818 63.1801 46.9323 64.4199 49.1335C65.6597 51.3346 67.2032 53.3586 69.0502 55.2309C70.8973 57.0778 73.0733 58.5705 75.5783 59.7091C78.0832 60.8476 80.9424 61.4042 84.1558 61.4042C87.1161 61.4042 89.7476 60.9235 92.0501 59.9874C94.3526 59.0512 96.5033 57.7862 98.5022 56.2429C100.501 54.6743 102.449 52.9791 104.398 51.1575C104.549 51.0057 104.752 50.9045 104.954 50.9045C105.283 50.9045 105.536 51.0563 105.713 51.3852C105.891 51.7141 105.84 51.9924 105.511 52.2707C103.462 54.1936 101.387 55.9899 99.2613 57.6344C97.1359 59.2789 94.8587 60.5693 92.455 61.556C90.0259 62.5174 87.268 62.9981 84.1558 62.9981L84.1811 63.0487ZM85.6233 57.8115C83.1943 57.8115 80.9424 57.2549 78.8423 56.167C76.7422 55.0538 74.8951 53.6116 73.2757 51.8153C71.6564 50.019 70.3913 48.0455 69.4804 45.9203C68.5695 43.7951 68.1141 41.7457 68.1141 39.747V39.5952C68.1141 39.1145 68.3924 38.8615 68.9237 38.8615C69.4045 38.8615 69.6828 39.1145 69.7334 39.5952C70.0117 41.4674 70.5684 43.3903 71.4287 45.3131C72.2889 47.2612 73.4276 49.0323 74.8445 50.6768C76.2614 52.3213 77.9061 53.6369 79.7279 54.6743C81.5496 55.6863 83.5232 56.2176 85.6233 56.2176C87.2933 56.2176 89.1656 55.661 91.2657 54.5225C93.3658 53.3839 95.4659 51.9671 97.5913 50.1961C99.7167 48.4504 101.665 46.6287 103.487 44.7565C105.283 42.8843 106.726 41.1891 107.814 39.6711C107.965 39.3928 108.193 39.2663 108.446 39.2663C108.775 39.2663 109.028 39.3928 109.205 39.6711C109.382 39.9494 109.357 40.253 109.079 40.6325C107.889 42.2517 106.371 44.0228 104.474 45.9962C102.601 47.9697 100.552 49.8419 98.3504 51.6382C96.1491 53.4345 93.9478 54.9273 91.7465 56.0658C89.5452 57.2296 87.4957 57.8115 85.6233 57.8115Z" fill="#5F3DC4"/>
<path d="M104.499 80C103.208 80 101.994 79.6458 100.83 78.9121C99.6661 78.1784 99.2107 76.964 99.4131 75.2435C99.4131 74.7628 99.6661 74.5098 100.147 74.5098C100.349 74.5098 100.552 74.5857 100.754 74.7628C100.957 74.9146 101.007 75.1423 100.957 75.3953C100.855 76.4073 101.134 77.1664 101.792 77.6471C102.475 78.1278 103.36 78.3808 104.499 78.3808C107.13 78.3808 109.686 77.723 112.166 76.4073C114.645 75.0917 116.973 73.3207 119.149 71.1195C121.325 68.9184 123.349 66.4643 125.196 63.7824C127.043 61.1006 128.663 58.3681 130.029 55.6357C131.395 52.9032 132.509 50.3732 133.369 48.0455C133.521 47.7672 133.875 47.4889 134.406 47.16C136.228 46.1986 138.025 45.1107 139.77 43.9469C141.516 42.7578 143.009 41.3409 144.249 39.6711C144.401 39.3928 144.628 39.2663 144.882 39.2663C145.135 39.2663 145.388 39.4181 145.615 39.747C145.818 40.0759 145.792 40.3542 145.539 40.6325C143.971 42.7325 142.225 44.4023 140.251 45.642C138.278 46.8817 136.456 47.9443 134.735 48.8552C133.875 51.1575 132.736 53.7128 131.345 56.5212C129.953 59.3295 128.283 62.0873 126.385 64.8197C124.488 67.5522 122.388 70.0822 120.085 72.3593C117.808 74.6363 115.328 76.4832 112.697 77.8748C110.065 79.2663 107.333 79.9747 104.474 79.9747L104.499 80ZM104.904 74.358C104.195 74.358 103.487 74.1556 102.778 73.7508C102.045 73.346 101.69 72.6882 101.69 71.7774C101.69 71.6256 101.69 71.4485 101.741 71.2966C101.766 71.1448 101.817 70.9677 101.867 70.8159C102.146 69.8545 102.829 68.7666 103.917 67.5522C105.005 66.3378 106.346 65.1233 107.915 63.9342C109.483 62.7198 111.027 61.6572 112.545 60.7464C114.089 59.8356 115.354 59.1777 116.366 58.7982C116.416 58.7476 116.518 58.7223 116.695 58.7223C117.226 58.7223 117.504 59.0259 117.504 59.6078C117.504 59.8862 117.353 60.0886 117.024 60.2404C116.062 60.6199 114.848 61.2271 113.431 62.0873C112.014 62.9475 110.546 63.9342 109.079 65.0221C107.611 66.1354 106.346 67.2233 105.283 68.3365C104.246 69.4497 103.613 70.3858 103.386 71.1954C103.386 71.246 103.386 71.322 103.335 71.3979C103.284 71.4738 103.284 71.5497 103.284 71.6003C103.284 72.3593 103.79 72.7388 104.828 72.7388C106.346 72.7388 108.016 72.1822 109.863 71.0942C111.71 69.981 113.582 68.5642 115.455 66.8185C117.327 65.0727 119.073 63.2511 120.667 61.3789C122.261 59.5066 123.501 57.7609 124.412 56.1417C124.564 55.8634 124.817 55.7369 125.146 55.7369C125.424 55.7369 125.652 55.8634 125.879 56.0911C126.107 56.3188 126.082 56.6224 125.879 56.926C124.969 58.5452 123.678 60.3416 122.059 62.3403C120.414 64.339 118.592 66.2366 116.568 68.0582C114.544 69.8798 112.545 71.3979 110.521 72.5617C108.497 73.7255 106.65 74.3327 104.929 74.3327L104.904 74.358ZM107.889 48.0708C107.56 48.0708 107.307 47.919 107.13 47.5901C106.953 47.2612 107.004 46.9829 107.333 46.7046C109.382 44.7059 110.951 42.859 112.039 41.1385C113.152 39.4181 114.367 37.3688 115.708 35.0158C115.86 34.7375 116.113 34.611 116.442 34.611C116.72 34.611 116.948 34.7375 117.175 34.9652C117.378 35.2182 117.378 35.4965 117.175 35.8001C115.834 38.229 114.569 40.3036 113.38 42.0999C112.191 43.871 110.546 45.7938 108.471 47.8178C108.32 47.9696 108.117 48.0708 107.915 48.0708H107.889ZM120.237 50.7274C119.377 50.7274 118.769 50.3985 118.415 49.766C118.061 49.1335 117.833 48.4504 117.732 47.7419C117.631 46.3504 117.732 44.6047 118.061 42.53C118.39 40.4554 118.947 38.2543 119.756 35.876C120.566 33.4978 121.654 31.2208 123.071 29.0196C123.172 28.8172 123.121 28.463 122.919 28.0076C122.691 27.5522 122.084 27.2233 121.072 26.9956C120.92 26.945 120.743 26.8944 120.591 26.8691C120.439 26.8438 120.237 26.8185 120.035 26.8185C119.326 26.8185 118.618 27.0209 117.909 27.4257C117.201 27.8305 116.518 28.5389 115.936 29.5509C115.227 30.74 114.291 32.4099 113.076 34.5604C111.862 36.7109 110.571 38.735 109.155 40.6072C109.003 40.8096 108.775 40.9361 108.522 40.9361C108.269 40.9361 108.016 40.8096 107.839 40.5313C107.662 40.253 107.662 39.9747 107.889 39.6458C109.281 37.7736 110.571 35.7748 111.761 33.6749C112.95 31.575 113.861 29.9304 114.493 28.7666C115.252 27.4763 116.113 26.5655 117.074 26.0342C118.036 25.5029 119.048 25.2245 120.06 25.2245C121.35 25.2245 122.489 25.5535 123.45 26.2366C124.412 26.9197 124.893 27.704 124.893 28.6148C124.893 28.9943 124.766 29.3991 124.488 29.8292C122.666 32.7894 121.35 35.8001 120.541 38.8615C119.731 41.9228 119.326 44.4529 119.326 46.4516C119.326 47.4636 119.427 48.172 119.604 48.5516C119.782 48.9311 120.06 49.1082 120.363 49.1082C120.844 49.1082 121.401 48.8299 122.008 48.2732C122.615 47.7166 123.172 47.1094 123.628 46.5022C124.083 45.895 124.336 45.5155 124.387 45.4143C125.297 44.124 126.208 42.4794 127.119 40.506C128.03 38.5073 128.89 36.4832 129.7 34.3833C130.51 32.2834 131.193 30.487 131.8 28.969C132.23 27.7799 133.04 26.8944 134.229 26.2619C135.418 25.6547 136.582 25.3258 137.772 25.3258C138.784 25.3258 139.669 25.5788 140.403 26.0595C141.137 26.5402 141.491 27.3245 141.491 28.3871V28.9943C141.491 29.1714 141.44 29.4244 141.339 29.6774C141.238 30.1581 140.934 31.0943 140.454 32.5111C139.973 33.9026 139.442 35.4206 138.834 37.0652C138.252 38.7097 137.696 40.1518 137.215 41.4168C136.734 42.6819 136.431 43.4409 136.329 43.7192C136.177 44.0481 135.95 44.1999 135.697 44.1999C135.444 44.1999 135.191 44.0987 135.014 43.871C134.811 43.6686 134.786 43.3903 134.887 43.0614C134.988 42.7831 135.267 42.024 135.722 40.759C136.177 39.494 136.684 38.0772 137.265 36.4832C137.822 34.8893 138.353 33.4219 138.834 32.0557C139.315 30.6894 139.619 29.7786 139.72 29.3485C139.77 29.1461 139.796 28.8678 139.796 28.5389C139.796 27.957 139.619 27.5269 139.239 27.2992C138.86 27.0462 138.404 26.945 137.873 26.945C137.012 26.945 136.102 27.198 135.165 27.704C134.229 28.21 133.597 28.8425 133.268 29.6015C132.939 30.4617 132.458 31.7268 131.825 33.4219C131.193 35.117 130.434 36.9387 129.599 38.9121C128.764 40.8855 127.828 42.7578 126.816 44.5541C125.804 46.3504 124.741 47.8431 123.628 48.9817C122.514 50.1455 121.401 50.7274 120.288 50.7274H120.237ZM119.503 56.0405C117.732 56.0405 116.29 55.6104 115.177 54.7502C114.063 53.8899 113.279 52.7767 112.798 51.4358C112.317 50.0949 112.09 48.754 112.166 47.413C112.166 46.8817 112.444 46.6034 112.975 46.6034C113.507 46.6034 113.785 46.8817 113.785 47.413C113.734 49.2853 114.164 50.9298 115.126 52.3213C116.062 53.7128 117.53 54.4213 119.529 54.4213C120.819 54.4213 122.185 53.7381 123.628 52.3972C125.07 51.0563 126.512 49.3106 127.954 47.16C129.371 45.0095 130.687 42.7325 131.876 40.3036C132.028 39.9747 132.281 39.8229 132.61 39.8229C132.888 39.8229 133.116 39.9241 133.293 40.1518C133.47 40.3542 133.495 40.6325 133.344 40.9614C132.205 43.2638 130.889 45.5914 129.396 47.9443C127.904 50.272 126.31 52.2201 124.64 53.7381C122.97 55.2815 121.274 56.0405 119.554 56.0405H119.503Z" fill="#5F3DC4"/>
<path d="M144.831 40.9867C144.35 40.9867 144.097 40.7337 144.097 40.253C144.097 40.1012 144.224 39.8229 144.502 39.4434C145.894 37.723 147.513 35.6736 149.335 33.3207C151.157 30.9677 152.978 28.4883 154.825 25.9077C154.977 25.7052 155.18 25.5787 155.382 25.5787C155.711 25.5787 155.964 25.7305 156.141 26.0342C156.318 26.3378 156.318 26.6161 156.09 26.8691C154.269 29.4497 152.422 31.9292 150.6 34.3327C148.778 36.7362 147.083 38.8362 145.514 40.6578C145.312 40.8602 145.059 40.9867 144.78 40.9867H144.831ZM151.283 55.8128C149.183 55.8128 147.513 55.2056 146.248 53.9911C144.983 52.7767 144.401 51.0563 144.527 48.7793C144.527 48.2985 144.806 48.0455 145.337 48.0455C145.539 48.0455 145.742 48.1214 145.944 48.2479C146.121 48.3744 146.197 48.5768 146.147 48.8552C146.096 50.3732 146.526 51.6382 147.488 52.6755C148.424 53.7128 149.815 54.2442 151.637 54.2442C152.928 54.2442 154.421 53.9152 156.116 53.2321C157.811 52.549 159.658 51.4611 161.632 49.9684C161.733 49.8672 161.91 49.8166 162.112 49.8166C162.644 49.8166 162.922 50.0949 162.922 50.6262C162.922 50.9045 162.821 51.1069 162.593 51.2587C160.594 52.7767 158.621 53.8899 156.672 54.649C154.699 55.408 152.928 55.7875 151.308 55.7875L151.283 55.8128ZM153.864 50.9804C151.865 50.9804 150.397 50.1961 149.436 48.6528C149.208 48.2226 149.031 47.7925 148.879 47.3118C148.727 46.8564 148.626 46.3504 148.626 45.8191C148.626 44.9083 148.854 43.8457 149.309 42.6312C149.765 41.4168 150.499 40.1265 151.536 38.7097C152.118 37.8495 152.978 36.7362 154.117 35.37C155.255 34.0038 156.445 32.5364 157.71 31.0183C158.975 29.475 160.063 28.0835 160.974 26.7932C160.974 26.7426 161.075 26.6667 161.252 26.5908C161.429 26.5149 161.556 26.4643 161.606 26.4643H168.539C169.071 26.4643 169.349 26.7426 169.349 27.2739C169.349 27.8052 169.071 28.0835 168.539 28.0835H162.011C161.1 29.3738 160.038 30.7653 158.823 32.2328C157.609 33.7002 156.445 35.117 155.357 36.4579C154.269 37.7989 153.408 38.8868 152.826 39.6711C151.916 41.012 151.258 42.1758 150.903 43.1879C150.549 44.1999 150.347 45.0601 150.347 45.8191C150.347 46.6287 150.499 47.2612 150.828 47.7419C151.46 48.8299 152.498 49.3612 153.889 49.3612C155.281 49.3612 156.723 48.8805 158.216 47.9443C159.683 47.0082 161.151 45.7938 162.618 44.3264C164.061 42.859 165.376 41.3156 166.566 39.6964C166.717 39.494 166.945 39.3675 167.198 39.3675C167.451 39.3675 167.704 39.494 167.932 39.7723C168.16 40.0506 168.109 40.3289 167.856 40.6578C165.857 43.4409 163.605 45.8697 161.075 47.919C158.545 49.9684 156.166 50.9804 153.889 50.9804H153.864ZM164.263 24.7691C163.934 24.7691 163.681 24.6173 163.504 24.3137C163.327 24.0101 163.352 23.7065 163.631 23.3776L169.349 17.179C169.627 16.9007 169.754 16.5718 169.754 16.1417C169.754 15.661 169.526 15.2309 169.071 14.8514C168.615 14.4719 168.084 14.2947 167.502 14.2947C166.97 14.2947 166.389 14.5478 165.807 15.0285C165.174 15.5598 164.162 16.5971 162.821 18.0898C161.48 19.6078 159.936 21.4042 158.216 23.5041C158.216 23.5547 158.14 23.6306 157.963 23.7065C157.786 23.7824 157.685 23.833 157.634 23.833H151.258C150.726 23.833 150.448 23.5547 150.448 23.0234C150.448 22.4921 150.726 22.2138 151.258 22.2138H157.229C158.848 20.1645 160.316 18.4187 161.657 16.926C162.998 15.4333 163.985 14.4213 164.643 13.814C165.452 13.055 166.389 12.6755 167.477 12.6755C168.565 12.6755 169.475 13.0044 170.209 13.6875C170.943 14.3707 171.348 15.155 171.348 16.0658C171.348 16.8754 171.069 17.5838 170.538 18.1657C170.437 18.3175 170.057 18.7476 169.45 19.456C168.843 20.1645 168.084 20.9488 167.224 21.8849C166.363 22.821 165.554 23.6812 164.794 24.5414C164.643 24.6932 164.44 24.7944 164.238 24.7944L164.263 24.7691Z" fill="#5F3DC4"/>
<path d="M172.158 56.0658C170.386 56.0658 168.818 55.4839 167.451 54.2948C166.085 53.1056 165.452 51.284 165.554 48.8046C165.554 48.3239 165.832 48.0708 166.363 48.0708C166.566 48.0708 166.768 48.1467 166.971 48.2732C167.173 48.3998 167.224 48.6022 167.173 48.8805C167.122 50.8286 167.603 52.2201 168.615 53.1056C169.627 53.9911 170.816 54.4466 172.158 54.4466C173.22 54.4466 174.308 54.1936 175.396 53.6875C176.459 53.1815 177.37 52.4478 178.053 51.4611C178.205 51.2587 178.433 51.1322 178.686 51.1322C178.939 51.1322 179.192 51.2587 179.419 51.537C179.622 51.8153 179.596 52.0936 179.343 52.4225C178.483 53.6116 177.42 54.4972 176.105 55.1297C174.814 55.7369 173.499 56.0658 172.158 56.0658ZM167.148 41.0626C166.869 41.0626 166.642 40.9361 166.464 40.6578C166.287 40.3795 166.287 40.1012 166.515 39.7723C167.426 38.482 168.489 37.0652 169.703 35.5471C170.918 34.0291 172.259 32.5617 173.777 31.1954C175.27 29.8292 176.889 28.6907 178.61 27.8052C180.33 26.9197 182.127 26.4643 184.024 26.4643C184.606 26.4643 185.214 26.5402 185.795 26.6667C186.377 26.7932 186.959 26.9703 187.491 27.198C187.82 27.3498 187.972 27.6028 187.972 27.9317C187.972 28.1341 187.87 28.3365 187.643 28.5389C187.44 28.716 187.162 28.7666 186.833 28.6654C186.504 28.5642 186.226 28.4883 185.947 28.4124C185.669 28.3112 185.391 28.2353 185.062 28.1594C184.733 28.1088 184.379 28.0835 184.024 28.0835C181.823 28.0835 179.723 28.7666 177.724 30.1075C175.725 31.4485 173.903 33.093 172.208 35.0158C170.513 36.9387 169.045 38.8362 167.805 40.6578C167.654 40.9361 167.426 41.0626 167.173 41.0626H167.148ZM173.271 50.9804C171.98 50.9804 171.145 50.4491 170.741 49.4118C170.336 48.3745 170.133 47.4889 170.133 46.7805C170.133 45.4396 170.589 43.8457 171.5 42.024C172.411 40.2024 173.6 38.4061 175.042 36.6097C176.484 34.8387 178.053 33.346 179.723 32.1822C181.393 30.993 182.987 30.4111 184.48 30.4111C185.239 30.4111 185.618 30.6894 185.618 31.2208C185.618 31.4232 185.542 31.6509 185.365 31.828C185.214 32.0051 184.986 32.081 184.733 32.0304C183.544 31.9292 182.228 32.3846 180.735 33.4472C179.267 34.4845 177.825 35.8507 176.459 37.47C175.093 39.1145 173.954 40.759 173.068 42.4288C172.183 44.0987 171.727 45.5408 171.727 46.7805C171.727 47.5395 171.854 48.1467 172.132 48.6275C172.411 49.1082 172.765 49.3612 173.271 49.3612C174.182 49.3612 175.244 48.8046 176.459 47.7166C177.673 46.6034 178.913 45.2119 180.204 43.5168C181.494 41.8216 182.734 40.0506 183.948 38.2037C185.163 36.3567 186.226 34.6616 187.187 33.1183C188.123 31.575 188.832 30.4364 189.313 29.7027C190.325 28.21 191.362 27.1474 192.374 26.5149C193.386 25.9077 194.348 25.5788 195.208 25.5788C196.169 25.5788 196.979 25.8824 197.586 26.4643C198.194 27.0462 198.523 27.8052 198.523 28.716C198.523 29.5256 198.219 30.3858 197.637 31.2967C197.207 31.9292 196.498 32.9918 195.537 34.4845C194.575 35.9519 193.563 37.5459 192.551 39.241C191.539 40.9361 190.679 42.4794 189.97 43.871C189.211 45.4902 188.832 46.7805 188.832 47.7419C188.832 48.8299 189.363 49.3612 190.451 49.3612C191.413 49.3612 192.501 49.0323 193.715 48.3997C194.93 47.7672 196.144 46.9323 197.384 45.895C198.624 44.883 199.788 43.8204 200.85 42.7071C201.913 41.5939 202.824 40.6072 203.507 39.6711C203.659 39.4687 203.861 39.3422 204.064 39.3422C204.393 39.3422 204.646 39.494 204.823 39.7976C205 40.1012 205 40.3795 204.772 40.6325C204.064 41.6445 203.128 42.7578 201.913 43.9469C200.699 45.136 199.408 46.2492 197.991 47.3371C196.6 48.425 195.208 49.2853 193.791 49.9684C192.399 50.6515 191.16 50.9804 190.072 50.9804C188.984 50.9804 188.3 50.6768 187.845 50.0949C187.39 49.513 187.162 48.754 187.162 47.8431C187.162 46.7046 187.491 45.4143 188.123 43.9722C188.832 42.4794 189.692 40.8096 190.755 39.0133C191.817 37.217 192.855 35.5218 193.892 33.9279C194.93 32.334 195.739 31.1448 196.271 30.3352C196.65 29.8039 196.827 29.2726 196.827 28.716C196.827 27.704 196.296 27.1727 195.208 27.1727C194.626 27.1727 193.892 27.451 193.083 27.9823C192.248 28.5136 191.413 29.3991 190.552 30.6388C189.363 32.4099 188.073 34.4592 186.63 36.7615C185.214 39.0639 183.771 41.2397 182.304 43.2891C180.862 45.2878 179.369 47.0588 177.825 48.6022C176.282 50.1708 174.738 50.9298 173.195 50.9298L173.271 50.9804ZM187.541 56.1417C185.112 56.1417 183.392 55.4839 182.329 54.1683C181.266 52.8526 180.76 51.4105 180.76 49.8419C180.76 48.5516 181.089 47.3118 181.722 46.1227C181.874 45.8444 182.127 45.7179 182.456 45.7179C182.734 45.7179 182.962 45.8444 183.139 46.0721C183.316 46.2998 183.341 46.6034 183.189 46.907C182.658 47.8684 182.38 48.8299 182.38 49.8166C182.38 51.0057 182.785 52.0683 183.594 53.0297C184.404 53.9911 185.72 54.4719 187.541 54.4719C189.591 54.4719 191.539 54.0164 193.386 53.1309C195.233 52.2454 197.004 51.1828 198.674 49.9431C198.776 49.8419 198.953 49.7913 199.155 49.7913C199.687 49.7913 199.965 50.0696 199.965 50.6009C199.965 50.8792 199.864 51.0816 199.636 51.2334C197.915 52.5237 196.068 53.6622 194.069 54.6237C192.07 55.5851 189.894 56.0658 187.541 56.0658V56.1417Z" fill="#5F3DC4"/>
</g>
<defs>
<clipPath id="clip0_112_116">
<rect width="205" height="80" fill="white"/>
</clipPath>
</defs>
</svg>
